<svg width="14" height="9" viewBox="0 0 14 9" fill="none" xmlns="http://www.w3.org/2000/svg">
<path d="M13.7069 1.207C13.5194 1.01953 13.2651 0.914215 12.9999 0.914215C12.7348 0.914215 12.4804 1.01953 12.2929 1.207L7.70692 5.793C7.51679 5.97549 7.26346 6.07739 6.99992 6.07739C6.73638 6.07739 6.48305 5.97549 6.29292 5.793L1.70692 1.207C1.51832 1.02484 1.26571 0.924049 1.00352 0.926327C0.741321 0.928606 0.490509 1.03377 0.305101 1.21918C0.119692 1.40459 0.0145233 1.6554 0.0122448 1.9176C0.00996641 2.1798 0.110761 2.4324 0.292919 2.621L4.87792 7.207C5.1565 7.48563 5.48724 7.70666 5.85125 7.85745C6.21526 8.00825 6.60541 8.08586 6.99942 8.08586C7.39343 8.08586 7.78358 8.00825 8.14759 7.85745C8.5116 7.70666 8.84234 7.48563 9.12092 7.207L13.7069 2.621C13.8944 2.43347 13.9997 2.17917 13.9997 1.914C13.9997 1.64884 13.8944 1.39453 13.7069 1.207Z" fill="#828282"/>
</svg>
