<svg width="18" height="14" viewBox="0 0 18 14" fill="none" xmlns="http://www.w3.org/2000/svg">
<path d="M17.1818 0H0.636364C0.284375 0 0 0.284375 0 0.636364V13.3636C0 13.7156 0.284375 14 0.636364 14H17.1818C17.5338 14 17.8182 13.7156 17.8182 13.3636V0.636364C17.8182 0.284375 17.5338 0 17.1818 0ZM16.3864 2.20341V12.5682H1.43182V2.20341L0.882955 1.77585L1.66449 0.771591L2.51562 1.43381H15.3045L16.1557 0.771591L16.9372 1.77585L16.3864 2.20341ZM15.3045 1.43182L8.90909 6.40341L2.51364 1.43182L1.6625 0.769602L0.880966 1.77386L1.42983 2.20142L8.22301 7.48324C8.41837 7.63501 8.65872 7.7174 8.90611 7.7174C9.1535 7.7174 9.39384 7.63501 9.5892 7.48324L16.3864 2.20341L16.9352 1.77585L16.1537 0.771591L15.3045 1.43182Z" fill="#3C955A"/>
</svg>
