<svg width="25" height="24" viewBox="0 0 25 24" fill="none" xmlns="http://www.w3.org/2000/svg">
<g clip-path="url(#clip0_36_21)">
<path d="M23.8792 11H1.87915C1.32687 11 0.87915 11.4477 0.87915 12C0.87915 12.5523 1.32687 13 1.87915 13H23.8792C24.4314 13 24.8792 12.5523 24.8792 12C24.8792 11.4477 24.4314 11 23.8792 11Z" fill="#333333"/>
<path d="M23.8792 4H1.87915C1.32687 4 0.87915 4.44772 0.87915 5C0.87915 5.55228 1.32687 6 1.87915 6H23.8792C24.4314 6 24.8792 5.55228 24.8792 5C24.8792 4.44772 24.4314 4 23.8792 4Z" fill="#333333"/>
<path d="M23.8792 18H1.87915C1.32687 18 0.87915 18.4477 0.87915 19C0.87915 19.5523 1.32687 20 1.87915 20H23.8792C24.4314 20 24.8792 19.5523 24.8792 19C24.8792 18.4477 24.4314 18 23.8792 18Z" fill="#333333"/>
</g>
<defs>
<clipPath id="clip0_36_21">
<rect width="24" height="24" fill="white" transform="translate(0.87915)"/>
</clipPath>
</defs>
</svg>
