<svg width="11" height="6" viewBox="0 0 11 6" fill="none" xmlns="http://www.w3.org/2000/svg">
<path d="M9.97112 0.471344C9.8461 0.346364 9.67656 0.276154 9.49978 0.276154C9.32301 0.276154 9.15347 0.346364 9.02845 0.471344L5.97112 3.52868C5.84436 3.65034 5.67547 3.71827 5.49978 3.71827C5.32409 3.71827 5.1552 3.65034 5.02845 3.52868L1.97112 0.471344C1.84538 0.349906 1.67698 0.282709 1.50218 0.284228C1.32738 0.285747 1.16018 0.35586 1.03657 0.479465C0.912966 0.603071 0.842853 0.770279 0.841334 0.945077C0.839815 1.11987 0.907011 1.28828 1.02845 1.41401L4.08512 4.47134C4.27084 4.6571 4.49133 4.80445 4.734 4.90498C4.97668 5.00551 5.23678 5.05725 5.49945 5.05725C5.76212 5.05725 6.02222 5.00551 6.26489 4.90498C6.50757 4.80445 6.72806 4.6571 6.91378 4.47134L9.97112 1.41401C10.0961 1.28899 10.1663 1.11945 10.1663 0.942677C10.1663 0.765901 10.0961 0.596363 9.97112 0.471344Z" fill="#78D679"/>
</svg>
