<svg width="16" height="16" viewBox="0 0 16 16" fill="none" xmlns="http://www.w3.org/2000/svg">
<path d="M11.6667 0.611328C10.916 0.623005 10.1817 0.832564 9.53786 1.21884C8.89407 1.60512 8.3636 2.15444 8.00002 2.81133C7.63645 2.15444 7.10598 1.60512 6.46218 1.21884C5.81838 0.832564 5.08406 0.623005 4.33336 0.611328C3.13665 0.663322 2.00916 1.18683 1.19721 2.06748C0.385263 2.94814 -0.045144 4.11435 2.30565e-05 5.31133C2.30565e-05 9.828 7.30402 15.0447 7.61469 15.266L8.00002 15.5387L8.38536 15.266C8.69602 15.046 16 9.828 16 5.31133C16.0452 4.11435 15.6148 2.94814 14.8028 2.06748C13.9909 1.18683 12.8634 0.663322 11.6667 0.611328ZM8.00002 13.8973C5.83136 12.2773 1.33336 8.29733 1.33336 5.31133C1.28778 4.46781 1.5776 3.64048 2.1396 3.00979C2.7016 2.37911 3.49018 1.99623 4.33336 1.94466C5.17653 1.99623 5.96512 2.37911 6.52711 3.00979C7.08911 3.64048 7.37893 4.46781 7.33336 5.31133H8.66669C8.62112 4.46781 8.91093 3.64048 9.47293 3.00979C10.0349 2.37911 10.8235 1.99623 11.6667 1.94466C12.5099 1.99623 13.2984 2.37911 13.8604 3.00979C14.4224 3.64048 14.7123 4.46781 14.6667 5.31133C14.6667 8.29866 10.1687 12.2773 8.00002 13.8973Z" fill="white"/>
</svg>
