<svg width="8" height="14" viewBox="0 0 8 14" fill="none" xmlns="http://www.w3.org/2000/svg">
<path d="M6.89988 4.87898L2.31088 0.292976C2.12047 0.120815 1.87115 0.0284695 1.61454 0.0350589C1.35792 0.0416482 1.11367 0.146668 0.93235 0.328374C0.75103 0.51008 0.646529 0.754556 0.640485 1.01118C0.634441 1.26781 0.727315 1.51693 0.89988 1.70698L5.48588 6.29298C5.67335 6.4805 5.77867 6.73481 5.77867 6.99998C5.77867 7.26514 5.67335 7.51945 5.48588 7.70698L0.89988 12.293C0.712371 12.4806 0.607084 12.7351 0.607178 13.0003C0.607272 13.2656 0.71274 13.52 0.90038 13.7075C1.08802 13.895 1.34246 14.0003 1.60773 14.0002C1.873 14.0001 2.12737 13.8946 2.31488 13.707L6.89988 9.12098C7.46229 8.55839 7.77824 7.79547 7.77824 6.99998C7.77824 6.20448 7.46229 5.44156 6.89988 4.87898Z" fill="#78D679"/>
</svg>
