<svg width="8" height="14" viewBox="0 0 8 14" fill="none" xmlns="http://www.w3.org/2000/svg">
<path d="M3.10003 7.70698C2.91256 7.51945 2.80724 7.26514 2.80724 6.99998C2.80724 6.73482 2.91256 6.48051 3.10003 6.29298L7.68503 1.70698C7.86719 1.51838 7.96798 1.26578 7.9657 1.00358C7.96342 0.741382 7.85825 0.49057 7.67285 0.305162C7.48744 0.119753 7.23663 0.0145843 6.97443 0.0123059C6.71223 0.0100274 6.45963 0.110822 6.27103 0.29298L1.68903 4.87898C1.12662 5.44156 0.810669 6.20449 0.810669 6.99998C0.810669 7.79547 1.12662 8.5584 1.68903 9.12098L6.27503 13.707C6.46363 13.8891 6.71623 13.9899 6.97843 13.9877C7.24063 13.9854 7.49144 13.8802 7.67685 13.6948C7.86226 13.5094 7.96742 13.2586 7.9697 12.9964C7.97198 12.7342 7.87119 12.4816 7.68903 12.293L3.10003 7.70698Z" fill="#78D679"/>
</svg>
