<svg width="8" height="15" viewBox="0 0 8 15" fill="none" xmlns="http://www.w3.org/2000/svg">
<path d="M2.6 8.20701C2.41253 8.01948 2.30721 7.76517 2.30721 7.50001C2.30721 7.23485 2.41253 6.98054 2.6 6.79301L7.185 2.20701C7.36716 2.01841 7.46795 1.76581 7.46567 1.50361C7.46339 1.24141 7.35822 0.9906 7.17282 0.805192C6.98741 0.619784 6.7366 0.514615 6.4744 0.512336C6.2122 0.510058 5.9596 0.610853 5.771 0.793011L1.189 5.37901C0.626585 5.94159 0.310638 6.70452 0.310638 7.50001C0.310638 8.2955 0.626585 9.05843 1.189 9.62101L5.775 14.207C5.9636 14.3892 6.2162 14.49 6.4784 14.4877C6.7406 14.4854 6.99141 14.3802 7.17682 14.1948C7.36223 14.0094 7.46739 13.7586 7.46967 13.4964C7.47195 13.2342 7.37116 12.9816 7.189 12.793L2.6 8.20701Z" fill="#BDBDBD"/>
</svg>
