<svg width="8" height="15" viewBox="0 0 8 15" fill="none" xmlns="http://www.w3.org/2000/svg">
<path d="M6.4 5.37901L1.811 0.793007C1.62059 0.620846 1.37127 0.5285 1.11466 0.535089C0.858045 0.541679 0.613793 0.646699 0.432472 0.828405C0.251152 1.01011 0.146651 1.25459 0.140607 1.51121C0.134563 1.76784 0.227437 2.01697 0.400002 2.20701L4.986 6.79301C5.17347 6.98053 5.27879 7.23484 5.27879 7.50001C5.27879 7.76517 5.17347 8.01948 4.986 8.20701L0.400002 12.793C0.212494 12.9806 0.107206 13.2351 0.1073 13.5004C0.107394 13.7656 0.212862 14.02 0.400502 14.2075C0.588143 14.395 0.842586 14.5003 1.10786 14.5002C1.37313 14.5001 1.62749 14.3946 1.815 14.207L6.4 9.62101C6.96241 9.05842 7.27836 8.2955 7.27836 7.50001C7.27836 6.70451 6.96241 5.94159 6.4 5.37901Z" fill="#BDBDBD"/>
</svg>
