<svg width="13" height="15" viewBox="0 0 13 15" fill="none" xmlns="http://www.w3.org/2000/svg">
<path d="M12.217 8.49613C12.036 8.31513 11.7904 8.21344 11.5344 8.21344C11.2784 8.21344 11.0329 8.31513 10.8518 8.49613L7.67234 11.6746L7.66558 1.62068C7.66558 1.36461 7.56386 1.11903 7.38279 0.93796C7.20172 0.756891 6.95614 0.655167 6.70007 0.655167C6.44399 0.655167 6.19841 0.756891 6.01734 0.93796C5.83627 1.11903 5.73455 1.36461 5.73455 1.62068L5.74131 11.6756L2.56186 8.49613C2.47279 8.40392 2.36625 8.33036 2.24846 8.27976C2.13066 8.22916 2.00396 8.20252 1.87576 8.20141C1.74756 8.20029 1.62042 8.22472 1.50176 8.27327C1.38311 8.32182 1.2753 8.39351 1.18465 8.48416C1.09399 8.57482 1.0223 8.68262 0.973754 8.80128C0.925207 8.91994 0.900778 9.04708 0.901892 9.17528C0.903006 9.30348 0.929641 9.43017 0.980243 9.54797C1.03084 9.66577 1.1044 9.77231 1.19662 9.86137L4.658 13.3237C4.92697 13.5927 5.24631 13.8061 5.59777 13.9517C5.94922 14.0973 6.32592 14.1723 6.70634 14.1723C7.08676 14.1723 7.46346 14.0973 7.81492 13.9517C8.16638 13.8061 8.48571 13.5927 8.75469 13.3237L12.217 9.86137C12.398 9.68031 12.4997 9.43477 12.4997 9.17875C12.4997 8.92273 12.398 8.67719 12.217 8.49613Z" fill="#BDBDBD"/>
</svg>
