<svg width="14" height="8" viewBox="0 0 14 8" fill="none" xmlns="http://www.w3.org/2000/svg">
<path d="M13.7064 0.292786C13.5189 0.105315 13.2646 0 12.9994 0C12.7343 0 12.48 0.105315 12.2924 0.292786L7.70643 4.87879C7.5163 5.06128 7.26297 5.16318 6.99943 5.16318C6.73589 5.16318 6.48256 5.06128 6.29243 4.87879L1.70643 0.292786C1.51783 0.110628 1.26523 0.00983372 1.00303 0.0121121C0.740833 0.0143906 0.49002 0.119559 0.304612 0.304967C0.119204 0.490376 0.014035 0.741188 0.0117566 1.00339C0.00947813 1.26558 0.110273 1.51818 0.292431 1.70679L4.87743 6.29279C5.15601 6.57142 5.48675 6.79244 5.85076 6.94324C6.21477 7.09403 6.60492 7.17165 6.99893 7.17165C7.39294 7.17165 7.78309 7.09403 8.1471 6.94324C8.51111 6.79244 8.84185 6.57142 9.12043 6.29279L13.7064 1.70679C13.8939 1.51926 13.9992 1.26495 13.9992 0.999786C13.9992 0.734622 13.8939 0.480314 13.7064 0.292786Z" fill="#828282"/>
</svg>
