<svg width="13" height="15" viewBox="0 0 13 15" fill="none" xmlns="http://www.w3.org/2000/svg">
<path d="M0.782691 6.50386C0.963752 6.68487 1.20929 6.78655 1.46531 6.78655C1.72133 6.78655 1.96687 6.68487 2.14793 6.50386L5.32738 3.32538L5.33414 13.3793C5.33414 13.6354 5.43586 13.881 5.61693 14.062C5.798 14.2431 6.04359 14.3448 6.29966 14.3448C6.55573 14.3448 6.80131 14.2431 6.98238 14.062C7.16345 13.881 7.26517 13.6354 7.26517 13.3793L7.25842 3.32441L10.4379 6.50386C10.5269 6.59608 10.6335 6.66963 10.7513 6.72023C10.8691 6.77084 10.9958 6.79747 11.124 6.79859C11.2522 6.7997 11.3793 6.77527 11.498 6.72672C11.6166 6.67818 11.7244 6.60648 11.8151 6.51583C11.9057 6.42517 11.9774 6.31737 12.026 6.19871C12.0745 6.08005 12.0989 5.95292 12.0978 5.82472C12.0967 5.69651 12.0701 5.56982 12.0195 5.45202C11.9689 5.33423 11.8953 5.22769 11.8031 5.13862L8.34173 1.67627C8.07275 1.40725 7.75341 1.19385 7.40196 1.04825C7.0505 0.902659 6.6738 0.827721 6.29338 0.827721C5.91296 0.827721 5.53626 0.902659 5.1848 1.04825C4.83335 1.19385 4.51401 1.40725 4.24504 1.67627L0.782691 5.13862C0.601684 5.31968 0.5 5.56522 0.5 5.82124C0.5 6.07726 0.601684 6.3228 0.782691 6.50386Z" fill="#78D679"/>
</svg>
