<svg width="20" height="20" viewBox="0 0 20 20" fill="none" xmlns="http://www.w3.org/2000/svg">
<path d="M8.69835 4.81668L5.65383 1.30239C5.30285 0.897412 4.65939 0.899212 4.25171 1.30779L1.74806 3.81594C1.00291 4.56199 0.789622 5.66983 1.2207 6.55807C3.796 11.8902 8.09633 16.1966 13.4249 18.7793C14.3122 19.2104 15.4191 18.9971 16.1643 18.2511L18.6914 15.7195C19.1008 15.31 19.1017 14.663 18.6931 14.312L15.1654 11.2837C14.7964 10.9669 14.2231 11.0083 13.8532 11.3791L12.6257 12.6084C12.5629 12.6743 12.4801 12.7177 12.3902 12.732C12.3003 12.7463 12.2082 12.7307 12.128 12.6876C10.1216 11.5322 8.45715 9.86558 7.30433 7.8576C7.26116 7.77728 7.24553 7.68501 7.25983 7.59495C7.27414 7.50489 7.31759 7.42201 7.38353 7.35902L8.60745 6.1342C8.97823 5.76162 9.01873 5.18566 8.69835 4.81578V4.81668Z" stroke="#3C955A" stroke-width="1.5" stroke-linecap="round" stroke-linejoin="round"/>
</svg>
