<svg width="16" height="24" viewBox="0 0 16 24" fill="none" xmlns="http://www.w3.org/2000/svg">
<path d="M14.707 5.46198L10.121 0.874985C9.5575 0.31428 8.79492 -0.000488281 7.99999 -0.000488281C7.20506 -0.000488281 6.44248 0.31428 5.87899 0.874985L1.29299 5.46198C1.19748 5.55423 1.1213 5.66458 1.06889 5.78658C1.01648 5.90858 0.988893 6.0398 0.987739 6.17258C0.986585 6.30536 1.01189 6.43704 1.06217 6.55994C1.11245 6.68284 1.1867 6.79449 1.28059 6.88838C1.37449 6.98227 1.48614 7.05653 1.60904 7.10681C1.73193 7.15709 1.86361 7.18239 1.99639 7.18124C2.12917 7.18008 2.26039 7.1525 2.38239 7.10009C2.5044 7.04768 2.61474 6.97149 2.70699 6.87598L6.99999 2.58398V23C6.99999 23.2652 7.10535 23.5196 7.29288 23.7071C7.48042 23.8946 7.73477 24 7.99999 24C8.26521 24 8.51956 23.8946 8.7071 23.7071C8.89463 23.5196 8.99999 23.2652 8.99999 23V2.58298L13.293 6.87598C13.3852 6.97149 13.4956 7.04768 13.6176 7.10009C13.7396 7.1525 13.8708 7.18008 14.0036 7.18124C14.1364 7.18239 14.268 7.15709 14.3909 7.10681C14.5138 7.05653 14.6255 6.98227 14.7194 6.88838C14.8133 6.79449 14.8875 6.68284 14.9378 6.55994C14.9881 6.43704 15.0134 6.30536 15.0122 6.17258C15.0111 6.0398 14.9835 5.90858 14.9311 5.78658C14.8787 5.66458 14.8025 5.55423 14.707 5.46198Z" fill="#F0F0F0"/>
</svg>
