<svg width="14" height="12" viewBox="0 0 14 12" fill="none" xmlns="http://www.w3.org/2000/svg">
<path d="M13.8956 5.52225C13.3834 4.40225 11.375 0.75 7.00002 0.75C2.62502 0.75 0.6166 4.40225 0.104433 5.52225C0.0356804 5.67234 9.15527e-05 5.83549 9.15527e-05 6.00058C9.15527e-05 6.16567 0.0356804 6.32882 0.104433 6.47892C0.6166 7.59775 2.62502 11.25 7.00002 11.25C11.375 11.25 13.3834 7.59775 13.8956 6.47775C13.9642 6.32783 13.9997 6.16488 13.9997 6C13.9997 5.83512 13.9642 5.67217 13.8956 5.52225ZM7.00002 10.0833C3.32093 10.0833 1.60418 6.95317 1.16668 6.00642C1.60418 5.04683 3.32093 1.91667 7.00002 1.91667C10.6704 1.91667 12.3877 5.03342 12.8334 6C12.3877 6.96658 10.6704 10.0833 7.00002 10.0833Z" fill="#F2F2F2"/>
<path d="M7.00001 3.08334C6.42315 3.08334 5.85924 3.2544 5.3796 3.57489C4.89995 3.89538 4.52612 4.3509 4.30536 4.88385C4.08461 5.4168 4.02685 6.00325 4.13939 6.56902C4.25193 7.1348 4.52971 7.6545 4.93762 8.06241C5.34552 8.47031 5.86522 8.74809 6.431 8.86063C6.99678 8.97317 7.58322 8.91542 8.11617 8.69466C8.64912 8.4739 9.10464 8.10007 9.42513 7.62042C9.74562 7.14078 9.91668 6.57687 9.91668 6.00001C9.91575 5.22675 9.60816 4.48542 9.06138 3.93864C8.5146 3.39186 7.77328 3.08427 7.00001 3.08334ZM7.00001 7.75001C6.65389 7.75001 6.31555 7.64737 6.02776 7.45508C5.73998 7.26279 5.51568 6.98948 5.38322 6.66971C5.25077 6.34994 5.21611 5.99807 5.28364 5.6586C5.35116 5.31914 5.51783 5.00732 5.76257 4.76257C6.00732 4.51783 6.31914 4.35116 6.6586 4.28364C6.99807 4.21611 7.34994 4.25077 7.66971 4.38322C7.98948 4.51567 8.26279 4.73998 8.45508 5.02776C8.64738 5.31555 8.75001 5.65389 8.75001 6.00001C8.75001 6.46414 8.56564 6.90926 8.23745 7.23745C7.90926 7.56564 7.46414 7.75001 7.00001 7.75001Z" fill="#F2F2F2"/>
</svg>
