<svg width="24" height="24" viewBox="0 0 24 24" fill="none" xmlns="http://www.w3.org/2000/svg">
<g clip-path="url(#clip0_74_1854)">
<path d="M23.786 17.3671C23.7215 17.2591 23.3225 16.392 21.4024 14.6099C19.3922 12.7438 19.6622 13.0468 22.0834 9.82005C23.558 7.8549 24.1476 6.65481 23.9631 6.14178C23.7875 5.65274 22.703 5.78175 22.703 5.78175L19.0967 5.80275C19.0967 5.80275 18.8297 5.76675 18.6302 5.88526C18.4367 6.00227 18.3121 6.27229 18.3121 6.27229C18.3121 6.27229 17.7406 7.7934 16.9785 9.08649C15.3719 11.8152 14.7284 11.9592 14.4659 11.7897C13.8553 11.3952 14.0083 10.2026 14.0083 9.35652C14.0083 6.71182 14.4089 5.60924 13.2268 5.32422C12.8337 5.22971 12.5457 5.1667 11.5421 5.1562C10.2551 5.1427 9.16447 5.1607 8.54793 5.46223C8.1369 5.66324 7.82038 6.11177 8.01389 6.13728C8.25241 6.16878 8.79245 6.28279 9.07897 6.67282C9.44949 7.17535 9.43599 8.30644 9.43599 8.30644C9.43599 8.30644 9.64901 11.4192 8.93946 11.8062C8.45192 12.0717 7.78437 11.5302 6.35177 9.05349C5.61821 7.7859 5.06317 6.38329 5.06317 6.38329C5.06317 6.38329 4.95667 6.12228 4.76615 5.98276C4.53514 5.81325 4.21111 5.75925 4.21111 5.75925L0.781862 5.78025C0.781862 5.78025 0.267324 5.79525 0.0783101 6.01877C-0.0897022 6.21828 0.0648091 6.62931 0.0648091 6.62931C0.0648091 6.62931 2.75001 12.9103 5.78923 16.077C8.57793 18.9797 11.7432 18.7892 11.7432 18.7892H13.1773C13.1773 18.7892 13.6108 18.7412 13.8313 18.5027C14.0353 18.2837 14.0278 17.8726 14.0278 17.8726C14.0278 17.8726 13.9993 15.948 14.8934 15.6645C15.774 15.3855 16.905 17.5246 18.1036 18.3482C19.0097 18.9707 19.6982 18.8342 19.6982 18.8342L22.904 18.7892C22.904 18.7892 24.5811 18.6857 23.786 17.3671Z" fill="#BDBDBD"/>
</g>
<defs>
<clipPath id="clip0_74_1854">
<rect width="24" height="24" fill="white"/>
</clipPath>
</defs>
</svg>
